# xmcd
# 
# Track frame offsets:
#     187
#     22400
#     49477
#     71145
#     96837
#     115985
#     135745
#     168140
#     190127
#     208110
#     226695
#     243547
# 
# Disc length: 3461
# 
# Revision: 20
# Processed by: cddbd v1.5.2PL0 Copyright (c) Steve Scherf et al.
# Submitted via: fre:ac v1.0.27
# 
DISCID=b00d830c
DTITLE=Lyle Lovett - Joshua Judges Ruth
DYEAR=1992
DGENRE=Jazz-influenced Rock
TTITLE0=I've Been To Memphis
TTITLE1=Church
TTITLE2=She's Already Made Up Her Mind
TTITLE3=North Dakota
TTITLE4=You've Been So Good Up To Now
TTITLE5=All My Love Is Gone
TTITLE6=Since The Last Time
TTITLE7=Baltimore
TTITLE8=Family Reserve
TTITLE9=She's Leaving Me Because She Really Wants To
TTITLE10=Flyswatter - Ice Water Blues (Monte Trenckmann's Blues)
TTITLE11=She Makes Me Feel Good
EXTD=
EXTT0=
EXTT1=
EXTT2=
EXTT3=
EXTT4=
EXTT5=
EXTT6=
EXTT7=
EXTT8=
EXTT9=
EXTT10=
EXTT11=
PLAYORDER=
